nRows=64
nColumns=19
inDegrees=yes
endheader
time	ground_force_vx	ground_force_vy	ground_force_vz	ground_force_px	ground_force_py	ground_force_pz	1_ground_force_vx	1_ground_force_vy	1_ground_force_vz	1_ground_force_px	1_ground_force_py	1_ground_force_pz	ground_torque_x	ground_torque_y	ground_torque_z	1_ground_torque_x	1_ground_torque_y	1_ground_torque_z
2.986	-0.162303	0.216404	0.072135	0.300000012	0	0.609999999	-0.054101	-0.126236	0	0.300000012	0	0.2050000005	-0.01528	0.035346	0.01528	-0	0.000721	0
2.987	-0.162303	0.126236	0.054101	0.300000012	0	0.609999999	-0.036067	-0.14427	0.018034	0.300000012	0	0.2050000005	0.01142	0.024526	-0.01142	-0	0.006492	0
2.988	-0.14427	0.090168	0.090168	0.300000012	0	0.609999999	-0.054101	-0.072135	0	0.300000012	0	0.2050000005	0.333855	0.02669	-0.333855	-0	0.012263	0
2.989	-0.162303	0.108202	0.054101	0.300000012	0	0.609999999	-0.054101	-0.14427	0.036067	0.300000012	0	0.2050000005	0.191284	0.031739	-0.191284	-0	0.005049	0
2.99	-0.180337	0.162303	0.054101	0.300000012	0	0.609999999	-0.018034	-0.126236	0.018034	0.300000012	0	0.2050000005	-0.017405	0.022362	0.017405	-0	0.01587	0
2.991	-0.14427	0.144269	0.108202	0.300000012	0	0.609999999	-0.036067	-0.072135	0.018034	0.300000012	0	0.2050000005	-0.023191	0.025969	0.023191	-0	-0.000721	0
2.992	-0.162303	0.072135	0.090168	0.300000012	0	0.609999999	-0.036067	-0.126236	0.018034	0.300000012	0	0.2050000005	32.84927	0.020198	-32.84927	-0	-0.000721	0
2.993	-0.162303	0.14427	0.090168	0.300000012	0	0.609999999	-0	-0.162303	0.036067	0.300000012	0	0.2050000005	-0.034541	0.020198	0.034541	-0	0.010099	0
2.994	-0.126236	0.072135	0.090168	0.300000012	0	0.609999999	-0	-0.216405	0	0.300000012	0	0.2050000005	0.214656	0.027411	-0.214656	-0	0.005771	0
2.995	-0.14427	0.090168	0.090168	0.300000012	0	0.609999999	-0.036067	-0.198371	-0.018034	0.300000012	0	0.2050000005	0.054495	0.022362	-0.054495	-0	0.013706	0
2.996	-0.14427	0.180337	0.14427	0.300000012	0	0.609999999	-0.090168	-0.108202	0	0.300000012	0	0.2050000005	-0.027002	0.018755	0.027002	-0	0.000721	0
2.997	-0.14427	0.090169	0.126236	0.300000012	0	0.609999999	-0.090168	-0.108202	0	0.300000012	0	0.2050000005	1.679371	0.018034	-1.679371	-0	0.007935	0
2.998	-0.162303	0.090168	0.108202	0.300000012	0	0.609999999	-0.072135	-0.198371	0	0.300000012	0	0.2050000005	2.333931	0.028133	-2.333931	-0	0.010099	0
2.999	-0.126236	0.144269	0.108202	0.300000012	0	0.609999999	-0.054101	-0.216405	0	0.300000012	0	0.2050000005	-0.057306	0.028133	0.057306	-0	0.007935	0
3	-0.126236	0.198371	0.108202	0.300000012	0	0.609999999	-0.090169	-0.180337	-0.018034	0.300000012	0	0.2050000005	-0.026104	0.028133	0.026104	-0	0.008656	0
3.001	-0.126236	0.180337	0.090168	0.300000012	0	0.609999999	-0.072135	-0.14427	-0.036067	0.300000012	0	0.2050000005	-0.022573	0.031739	0.022573	-0	0.010099	0
3.002	-0.126236	0.180337	0.090168	0.300000012	0	0.609999999	-0.090169	-0.126236	0.018034	0.300000012	0	0.2050000005	-0.021035	0.031739	0.021035	-0	0.01587	0
3.003	-0.14427	0.198371	0.108202	0.300000012	0	0.609999999	-0.090169	-0.14427	0.054101	0.300000012	0	0.2050000005	-0.018781	0.025969	0.018781	-0	0.008656	0
3.004	-0.14427	0.126236	0.090168	0.300000012	0	0.609999999	-0.072135	-0.090168	0.036067	0.300000012	0	0.2050000005	-0.029984	0.032461	0.029984	-0	0.010099	0
3.005	-0.14427	0.216404	0.108202	0.300000012	0	0.609999999	-0.072135	-0.054101	0	0.300000012	0	0.2050000005	-0.0132	0.033182	0.0132	-0	0.010099	0
3.006	-0.162303	0.198371	0.090168	0.300000012	0	0.609999999	-0.054101	-0.108202	0.036067	0.300000012	0	0.2050000005	-0.013223	0.027411	0.013223	-0	0.007935	0
3.007	-0.126236	0.126236	0.108202	0.300000012	0	0.609999999	-0.072135	-0.090168	0.036067	0.300000012	0	0.2050000005	0.000712	0.031018	-0.000712	-0	0.010099	0
3.008	-0.108202	0.108202	0.108202	0.300000012	0	0.609999999	-0.072135	-0.090169	0	0.300000012	0	0.2050000005	-0.048352	0.02164	0.048352	-0	0.005771	0
3.009	-0.14427	0.144269	0.090168	0.300000012	0	0.609999999	-0.054101	-0.108202	0.018034	0.300000012	0	0.2050000005	-0.021838	0.025247	0.021838	-0	0.004328	0
3.01	-0.180337	0.108202	0.108202	0.300000012	0	0.609999999	-0.108202	-0.054101	-0.018034	0.300000012	0	0.2050000005	1.131671	0.02164	-1.131671	-0	0.009378	0
3.011	-0.162303	0.090168	0.126236	0.300000012	0	0.609999999	-0.072135	-0.090169	-0.018034	0.300000012	0	0.2050000005	0.351684	0.01587	-0.351684	-0	0.009378	0
3.012	-0.126236	0.090169	0.126236	0.300000012	0	0.609999999	-0.090168	-0.090168	0	0.300000012	0	0.2050000005	3.435878	0.020198	-3.435878	-0	0.007935	0
3.013	-0.108202	0.126236	0.108202	0.300000012	0	0.609999999	-0.072135	-0.054101	0	0.300000012	0	0.2050000005	0.107264	0.02164	-0.107264	-0	0.005771	0
3.014	-0.14427	0.180337	0.090168	0.300000012	0	0.609999999	-0.054101	-0.108202	0.036067	0.300000012	0	0.2050000005	-0.016157	0.020919	0.016157	-0	0.007935	0
3.015	-0.14427	0.14427	0.072135	0.300000012	0	0.609999999	-0.054101	-0.108202	-0.018034	0.300000012	0	0.2050000005	-0.023151	0.017312	0.023151	-0	0.011542	0
3.016	-0.14427	0.072135	0.090168	0.300000012	0	0.609999999	-0.054101	-0.090169	-0.018034	0.300000012	0	0.2050000005	9.702894	0.020919	-9.702894	-0	0.011542	0
3.017	-0.162303	0.072135	0.090168	0.300000012	0	0.609999999	-0.036067	-0.072135	0.018034	0.300000012	0	0.2050000005	17.984852	0.018755	-17.984852	-0	0.009378	0
3.018	-0.14427	0.14427	0.072135	0.300000012	0	0.609999999	-0.054101	-0.090168	-0.018034	0.300000012	0	0.2050000005	0.051289	0.024526	-0.051289	-0	0.007213	0
3.019	-0.108202	0.162303	0.090168	0.300000012	0	0.609999999	-0.036067	-0.162303	-0.018034	0.300000012	0	0.2050000005	-0.02532	0.025247	0.02532	-0	0.009378	0
3.02	-0.126236	0.108202	0.072135	0.300000012	0	0.609999999	-0	-0.090169	-0.018034	0.300000012	0	0.2050000005	0.654623	0.019476	-0.654623	-0	0.005049	0
3.021	-0.126236	0.180337	0.090168	0.300000012	0	0.609999999	-0.054101	-0.072135	0	0.300000012	0	0.2050000005	-0.025395	0.023083	0.025395	-0	0.01082	0
3.022	-0.108202	0.198371	0.126236	0.300000012	0	0.609999999	-0.072135	-0.14427	0	0.300000012	0	0.2050000005	-0.021257	0.025247	0.021257	-0	0.001443	0
3.023	-0.126236	0.180337	0.126236	0.300000012	0	0.609999999	-0.054101	-0.162303	0.036067	0.300000012	0	0.2050000005	-0.034581	0.027411	0.034581	-0	0.01082	0
3.024	-0.108202	0.14427	0.090168	0.300000012	0	0.609999999	-0.036067	-0.14427	0	0.300000012	0	0.2050000005	0.017942	0.018034	-0.017942	-0	0.012984	0
3.025	-0.126236	0.126236	0.090168	0.300000012	0	0.609999999	-0.036067	-0.108202	0	0.300000012	0	0.2050000005	-0.092302	0.023083	0.092302	-0	0.01587	0
3.026	-0.126236	0.126236	0.090168	0.300000012	0	0.609999999	-0.054101	-0.162303	0	0.300000012	0	0.2050000005	-0.049152	0.01587	0.049152	-0	0.01082	0
3.027	-0.126236	0.108202	0.108202	0.300000012	0	0.609999999	-0.054101	-0.108202	0	0.300000012	0	0.2050000005	-0.119543	0.023805	0.119543	-0	0.006492	0
3.028	-0.126236	0.108202	0.108202	0.300000012	0	0.609999999	-0.054101	-0.072135	0.036067	0.300000012	0	0.2050000005	-0.068953	0.031018	0.068953	-0	0.006492	0
3.029	-0.108202	0.108202	0.072135	0.300000012	0	0.609999999	-0.036067	-0.126236	0.036067	0.300000012	0	0.2050000005	-0.039374	0.028854	0.039374	-0	0.008656	0
3.03	-0.14427	0.126236	0.108202	0.300000012	0	0.609999999	-0.072135	-0.054101	0.018034	0.300000012	0	0.2050000005	-0.018275	0.024526	0.018275	-0	0.012263	0
3.031	-0.126236	0.108202	0.108202	0.300000012	0	0.609999999	-0.072135	-0.072135	0.036067	0.300000012	0	0.2050000005	-0.008576	0.019476	0.008576	-0	0.008656	0
3.032	-0.126236	0.072135	0.126236	0.300000012	0	0.609999999	-0.072135	-0.108202	0.018034	0.300000012	0	0.2050000005	10.727512	0.030297	-10.727512	-0	0.005049	0
3.033	-0.14427	0.072135	0.14427	0.300000012	0	0.609999999	-0.072135	-0.054101	-0.018034	0.300000012	0	0.2050000005	1.61628	0.024526	-1.61628	-0	0.005049	0
3.034	-0.108202	0.018034	0.108202	0.300000012	0	0.609999999	-0.054101	-0.054101	0	0.300000012	0	0.2050000005	120647.960938	0.024526	-120647.960938	-0	0.006492	0
3.035	-0.108202	0.054101	0.090168	0.300000012	0	0.609999999	-0.018034	-0.108202	0.036067	0.300000012	0	0.2050000005	54.83046	0.028133	-54.83046	-0	0.006492	0
3.036	-0.14427	0.090169	0.072135	0.300000012	0	0.609999999	-0.036067	-0.090169	0.036067	0.300000012	0	0.2050000005	1.467536	0.024526	-1.467536	-0	0.011542	0
3.037	-0.108202	0.090169	0.072135	0.300000012	0	0.609999999	-0.018034	-0.036067	0.054101	0.300000012	0	0.2050000005	0.371249	0.024526	-0.371249	-0	0.010099	0
3.038	-0.108202	0.126236	0.090168	0.300000012	0	0.609999999	-0.054101	-0.036067	0.036067	0.300000012	0	0.2050000005	0.017039	0.025247	-0.017039	-0	0.006492	0
3.039	-0.14427	0.072135	0.072135	0.300000012	0	0.609999999	-0.090169	-0.126236	0.036067	0.300000012	0	0.2050000005	2.152031	0.028854	-2.152031	-0	0.009377	0
3.04	-0.108202	0.072135	0.090168	0.300000012	0	0.609999999	-0.036067	-0.126236	0.036067	0.300000012	0	0.2050000005	6.787352	0.020919	-6.787352	-0	0.011542	0
3.041	-0.14427	0.126236	0.090168	0.300000012	0	0.609999999	-0.054101	-0.108202	0.018034	0.300000012	0	0.2050000005	1.084167	0.020919	-1.084167	-0	0.017312	0
3.042	-0.108202	0.108202	0.054101	0.300000012	0	0.609999999	-0.036067	-0.054101	-0.018034	0.300000012	0	0.2050000005	-0.007269	0.020919	0.007269	-0	0.015148	0
3.043	-0.090168	0.14427	0.090168	0.300000012	0	0.609999999	-0.036067	-0.054101	-0.018034	0.300000012	0	0.2050000005	-0.017311	0.030297	0.017311	-0	0.012263	0
3.044	-0.14427	0.072135	0.090168	0.300000012	0	0.609999999	-0.072135	-0.090169	0.018034	0.300000012	0	0.2050000005	19.381548	0.028133	-19.381548	-0	0.012263	0
3.045	-0.090169	0.072135	0.054101	0.300000012	0	0.609999999	-0.036067	-0.036067	0	0.300000012	0	0.2050000005	0.552398	0.018755	-0.552398	-0	0.007214	0
3.046	-0.108202	0.108202	0.072135	0.300000012	0	0.609999999	-0.036067	-0.108202	0.036067	0.300000012	0	0.2050000005	-0.188245	0.020198	0.188245	-0	0.011542	0
3.047	-0.144269	0.162303	0.090168	0.300000012	0	0.609999999	-0.072135	-0.162303	0.036067	0.300000012	0	0.2050000005	-0.064287	0.023805	0.064287	-0	0.004328	0
3.048	-0.144269	0.126236	0.090168	0.300000012	0	0.609999999	-0.072135	-0.126236	0.018034	0.300000012	0	0.2050000005	-0.046651	0.023805	0.046651	-0	0.003607	0
3.049	-0.126236	0.108202	0.072135	0.300000012	0	0.609999999	-0.036067	-0.180337	0.054101	0.300000012	0	0.2050000005	0.02169	0.029575	-0.02169	-0	0.007935	0
